<svg viewBox="0 0 100 100" fill="none" xmlns="http://www.w3.org/2000/svg"><path d="M57.516 9.172a21.06 21.06 0 0112.25 12.39 3.125 3.125 0 005.859-2.156A27.312 27.312 0 0059.75 3.328a3.128 3.128 0 00-2.234 5.844z" fill="#0CCE6B"/><path d="M49.484 71.219h1.032a17.188 17.188 0 0017.109-17.094V28.344a17.187 17.187 0 00-17.11-17.11h-1.03a17.187 17.187 0 00-17.11 17.11v25.781a17.188 17.188 0 0017.11 17.094zM38.625 28.344a10.938 10.938 0 0110.86-10.86h1.03a10.938 10.938 0 0110.86 10.86v25.781a10.938 10.938 0 01-10.86 10.86h-1.03a10.938 10.938 0 01-10.86-10.86V28.344z" fill="#000"/><path d="M75.266 42.453a3.125 3.125 0 00-3.125 3.125v9.11a22.156 22.156 0 11-44.297 0v-9.11a3.125 3.125 0 00-6.25 0v9.11a28.437 28.437 0 0025.281 28.234V93.75a3.125 3.125 0 106.25 0V82.922a28.438 28.438 0 0025.266-28.234v-9.11a3.125 3.125 0 00-3.125-3.125z" fill="#000"/></svg>